<svg width="105" height="140" viewBox="0 0 105 140" fill="none" xmlns="http://www.w3.org/2000/svg">
<path d="M38.0857 60.16H36.6857V64.7H35.7957V55.96H36.6857V59.43H38.0857V60.16ZM30.6257 61.91C30.2523 61.3367 30.0657 60.59 30.0657 59.67C30.0657 58.75 30.2523 58.0067 30.6257 57.44C30.999 56.8667 31.5523 56.58 32.2857 56.58C33.019 56.58 33.569 56.8667 33.9357 57.44C34.309 58.0067 34.4957 58.7533 34.4957 59.68C34.4957 60.5933 34.309 61.3367 33.9357 61.91C33.569 62.4767 33.019 62.76 32.2857 62.76C31.5523 62.76 30.999 62.4767 30.6257 61.91ZM33.6257 59.68C33.6257 58.98 33.509 58.4167 33.2757 57.99C33.0423 57.5567 32.7123 57.34 32.2857 57.34C31.859 57.34 31.529 57.5533 31.2957 57.98C31.069 58.4067 30.9557 58.9733 30.9557 59.68C30.9557 60.3733 31.069 60.9333 31.2957 61.36C31.529 61.7867 31.859 62 32.2857 62C32.7123 62 33.0423 61.7867 33.2757 61.36C33.509 60.9333 33.6257 60.3733 33.6257 59.68ZM38.898 57.29V56.56H43.738V57.29H41.748V57.53C41.748 58.11 41.968 58.6333 42.408 59.1C42.848 59.56 43.3413 59.8733 43.888 60.04L43.398 60.75C42.9847 60.5833 42.578 60.33 42.178 59.99C41.778 59.6433 41.488 59.2767 41.308 58.89C41.1747 59.2967 40.888 59.7033 40.448 60.11C40.0147 60.51 39.5613 60.8067 39.088 61L38.568 60.31C39.168 60.09 39.698 59.72 40.158 59.2C40.618 58.68 40.848 58.13 40.848 57.55V57.29H38.898ZM39.898 61.57H45.758V64.7H44.868V62.29H39.898V61.57ZM45.758 61.11H44.868V55.97H45.758V61.11ZM57.7573 60.86H49.8673V60.14H57.7573V60.86ZM56.8273 63.12C56.8273 63.6133 56.564 63.9967 56.0373 64.27C55.5106 64.55 54.7673 64.69 53.8073 64.69C52.854 64.69 52.114 64.55 51.5873 64.27C51.0606 63.9967 50.7973 63.6133 50.7973 63.12C50.7973 62.6333 51.0606 62.25 51.5873 61.97C52.1206 61.69 52.8606 61.55 53.8073 61.55C54.7673 61.55 55.5106 61.6867 56.0373 61.96C56.564 62.2333 56.8273 62.62 56.8273 63.12ZM53.8073 62.27C53.1606 62.27 52.6473 62.3467 52.2673 62.5C51.894 62.6467 51.7073 62.8533 51.7073 63.12C51.7073 63.3933 51.894 63.6033 52.2673 63.75C52.6406 63.8967 53.154 63.97 53.8073 63.97C54.4673 63.97 54.984 63.8967 55.3573 63.75C55.7373 63.6033 55.9273 63.3933 55.9273 63.12C55.9273 62.8533 55.7373 62.6467 55.3573 62.5C54.9773 62.3467 54.4606 62.27 53.8073 62.27ZM56.7973 59.27H50.8173V56.33H56.7373V57.05H51.6973V58.55H56.7973V59.27ZM65.5996 59.86H62.8896V60.71H66.4096V61.43H58.5196V60.71H61.9996V59.86H59.4996V57.71H64.5196V56.95H59.4796V56.26H65.4096V58.37H60.3896V59.18H65.5996V59.86ZM59.3796 62.11H65.4296V64.74H64.5496V62.82H59.3796V62.11ZM72.962 61.16C72.0487 61.26 71.1087 61.3367 70.142 61.39C68.8487 61.4433 67.8953 61.47 67.282 61.47L67.152 60.72C68.2053 60.72 69.022 60.71 69.602 60.69V59.61H67.882V56.58H72.302V57.31H68.762V58.89H72.382V59.61H70.482V60.65C71.4687 60.61 72.2687 60.5467 72.882 60.46L72.962 61.16ZM74.512 64.47H68.622V62.01H69.512V63.75H74.512V64.47ZM74.362 62.52H73.482V55.96H74.362V62.52ZM31.1695 74.62L31.2595 75.35C30.1995 75.5233 28.8295 75.62 27.1495 75.64H26.0595V72.2H29.3295V70.47H26.0195V69.75H30.2095V72.91H26.9395V74.89H27.1995C28.8928 74.89 30.2162 74.8 31.1695 74.62ZM31.9295 68.96H32.8195V77.7H31.9295V68.96ZM41.1918 73.16H35.2118V69.31H36.0918V70.58H40.3118V69.3H41.1918V73.16ZM37.1218 77.71H36.2418V74.85H34.2618V74.12H42.1518V74.85H40.1418V77.71H39.2618V74.85H37.1218V77.71ZM40.3118 72.45V71.28H36.0918V72.45H40.3118ZM49.6642 68.96V72.54H51.0642V73.28H49.6642V77.7H48.7842V68.96H49.6642ZM47.3642 69.89C47.3375 71.25 46.9875 72.4433 46.3142 73.47C45.6408 74.4967 44.6908 75.3433 43.4642 76.01L42.9242 75.34C43.9375 74.8533 44.7508 74.1867 45.3642 73.34C45.9842 72.4933 46.3342 71.5933 46.4142 70.64H43.3042V69.89H47.3642ZM61.3635 73.7H60.4735V71.72H59.0735V70.99H60.4735V68.96H61.3635V73.7ZM58.7135 71.37C58.7135 71.95 58.5001 72.4267 58.0735 72.8C57.6535 73.1733 57.1301 73.36 56.5035 73.36C55.8835 73.36 55.3568 73.1767 54.9235 72.81C54.4968 72.4433 54.2835 71.9667 54.2835 71.38C54.2835 70.7933 54.4935 70.31 54.9135 69.93C55.3401 69.5433 55.8668 69.35 56.4935 69.35C57.1201 69.35 57.6468 69.54 58.0735 69.92C58.5001 70.3 58.7135 70.7833 58.7135 71.37ZM57.8335 71.37C57.8335 71.01 57.7101 70.71 57.4635 70.47C57.2168 70.23 56.8935 70.11 56.4935 70.11C56.1201 70.11 55.8035 70.23 55.5435 70.47C55.2835 70.71 55.1535 71.01 55.1535 71.37C55.1535 71.7233 55.2801 72.0167 55.5335 72.25C55.7935 72.4833 56.1168 72.6 56.5035 72.6C56.8968 72.6 57.2168 72.4833 57.4635 72.25C57.7101 72.01 57.8335 71.7167 57.8335 71.37ZM62.1535 77.1L61.6135 77.72C61.3335 77.5733 61.0568 77.3467 60.7835 77.04C60.5101 76.74 60.3235 76.4633 60.2235 76.21C60.1501 76.4767 59.9801 76.7567 59.7135 77.05C59.4535 77.3433 59.1668 77.5733 58.8535 77.74C58.7935 77.6667 58.7035 77.5667 58.5835 77.44C58.4635 77.3133 58.3735 77.2133 58.3135 77.14C58.7868 76.94 59.1535 76.6233 59.4135 76.19C59.6801 75.7567 59.8135 75.2967 59.8135 74.81V74.13H60.6635V74.81C60.6635 75.2767 60.7968 75.7267 61.0635 76.16C61.3368 76.5933 61.7001 76.9067 62.1535 77.1ZM58.1735 77.58H55.1435V74.19H55.9835V75.22H57.3335V74.18H58.1735V77.58ZM57.3335 76.91V75.88H55.9835V76.91H57.3335ZM63.4558 74.9C63.0758 74.3267 62.8858 73.5833 62.8858 72.67C62.8858 71.7567 63.0758 71.0133 63.4558 70.44C63.8358 69.8667 64.3958 69.58 65.1358 69.58C65.8158 69.58 66.3392 69.8267 66.7058 70.32C67.0792 70.8067 67.2958 71.4567 67.3558 72.27H69.1258V68.96H70.0158V77.7H69.1258V73.02H67.3558C67.3025 73.8467 67.0892 74.51 66.7158 75.01C66.3492 75.51 65.8225 75.76 65.1358 75.76C64.3958 75.76 63.8358 75.4733 63.4558 74.9ZM66.4858 72.68C66.4858 71.98 66.3658 71.4167 66.1258 70.99C65.8925 70.5567 65.5625 70.34 65.1358 70.34C64.7025 70.34 64.3692 70.5533 64.1358 70.98C63.9092 71.4067 63.7958 71.9733 63.7958 72.68C63.7958 73.3733 63.9092 73.9333 64.1358 74.36C64.3692 74.7867 64.7025 75 65.1358 75C65.5625 75 65.8925 74.7867 66.1258 74.36C66.3658 73.9333 66.4858 73.3733 66.4858 72.68ZM77.7982 70.17C78.3982 70.5833 78.6982 71.13 78.6982 71.81C78.6982 72.49 78.3982 73.0367 77.7982 73.45C77.2048 73.8633 76.4182 74.07 75.4382 74.07C74.4648 74.07 73.6782 73.8633 73.0782 73.45C72.4848 73.0367 72.1882 72.49 72.1882 71.81C72.1882 71.13 72.4848 70.5833 73.0782 70.17C73.6782 69.75 74.4648 69.54 75.4382 69.54C76.4182 69.54 77.2048 69.75 77.7982 70.17ZM77.7882 71.81C77.7882 71.35 77.5715 70.98 77.1382 70.7C76.7115 70.4133 76.1448 70.27 75.4382 70.27C74.7315 70.27 74.1648 70.4133 73.7382 70.7C73.3115 70.98 73.0982 71.35 73.0982 71.81C73.0982 72.2633 73.3115 72.6333 73.7382 72.92C74.1715 73.2 74.7382 73.34 75.4382 73.34C76.1448 73.34 76.7115 73.2 77.1382 72.92C77.5715 72.6333 77.7882 72.2633 77.7882 71.81ZM79.3882 76.59H71.4982V75.87H73.3882V74.32L74.2782 74.29V75.87H76.5882V74.29L77.4682 74.32V75.87H79.3882V76.59Z" fill="black"/>
</svg>
