<svg width="153" height="76" viewBox="0 0 153 76" fill="none" xmlns="http://www.w3.org/2000/svg">
<path d="M82.424 43.384V35.56L80.36 35.8V43.576L71.816 44.344V38.248L67.88 44.536L60.008 39.88L50.936 46.456L46.52 40.648L55.544 33.88V33.112H48.632V25.96H70.712V33.112H64.232V33.592L71.816 38.056V18.472H80.36V26.008L82.424 25.768V18.472H91.112V42.568L82.424 43.384ZM81.224 60.184V52.936L53.096 55.096V47.176L91.112 43.816V60.184H81.224ZM52.712 24.904V17.608H67.352V24.904H52.712ZM135.775 33.88V38.344L125.887 39.352V39.016L96.3665 41.896V18.664H122.623V26.632H106.207V32.92L125.887 31.144V18.472H135.775V24.088L140.863 23.512V33.304L135.775 33.88ZM99.1505 59.656V43.288L135.775 39.832V59.656H99.1505ZM125.887 48.712L109.039 50.2V51.784L125.887 50.584V48.712Z" fill="black"/>
<path d="M16 11.5H34C36.4853 11.5 38.5 13.5147 38.5 16V62C38.5 64.4853 36.4853 66.5 34 66.5H16C13.5147 66.5 11.5 64.4853 11.5 62V16C11.5 13.5147 13.5147 11.5 16 11.5Z" fill="white" stroke="#3A3967"/>
<path d="M13 18C13 15.2386 15.2386 13 18 13H32C34.7614 13 37 15.2386 37 18V60C37 62.7614 34.7614 65 32 65H18C15.2386 65 13 62.7614 13 60V18Z" fill="#3A3967"/>
<path d="M24.8 33.92L17.84 37.3L16.14 34.18L22.7 30.98V30.64H17.32V27.3H32.28V30.64H26.9V31.02L33.46 33.56L31.76 36.6L24.8 33.92ZM20.32 26.6V23.24H29.28V26.6H20.32Z" fill="white"/>
<path d="M17.42 54.04V42.28H32.18V45.86H21.54V50.06L32.18 49.3V53.14L17.42 54.04Z" fill="white"/>
</svg>
